<mxfile host="app.diagrams.net" modified="2023-09-17T16:20:24.687Z" agent="Mozilla/5.0 (Windows NT 10.0; Win64; x64) AppleWebKit/537.36 (KHTML, like Gecko) Chrome/116.0.0.0 Safari/537.36" version="21.7.2" etag="YuXbYxa0YGq-pE5OdIBv" type="github">
  <diagram name="PÃ¡gina-1" id="8xGX6_zAQErQKkAlsUJ6">
    <mxGraphModel>
      <root>
        <mxCell id="0" />
        <mxCell id="1" parent="0" />
      </root>
    </mxGraphModel>
  </diagram>
</mxfile>
